<?xml version="1.0" encoding="UTF-8"?>
<svg xmlns="http://www.w3.org/2000/svg" xmlns:xlink="http://www.w3.org/1999/xlink" viewBox="0 0 90 90" preserveAspectRatio="none" version="1.1">
<g id="surface1">
<path style=" stroke:none;fill-rule:nonzero;fill:rgb(6.27451%,9.411765%,12.54902%);fill-opacity:1;" d="M 41.242188 44.578125 C 41.199219 44.503906 41.199219 44.308594 41.242188 44.234375 L 45.421875 36.496094 C 45.605469 36.1875 45.550781 35.929688 45.515625 35.832031 C 45.484375 35.738281 45.378906 35.5 45.097656 35.5 L 41.960938 35.5 C 41.691406 35.5 41.351562 35.738281 41.183594 36.046875 C 41.183594 36.046875 38.6875 40.644531 37.941406 42.035156 L 37.941406 36.367188 C 37.941406 35.886719 37.660156 35.492188 37.328125 35.492188 L 34.859375 35.492188 C 34.519531 35.492188 34.238281 35.886719 34.238281 36.367188 L 34.238281 52.753906 C 34.238281 53.238281 34.519531 53.632812 34.859375 53.632812 L 37.328125 53.632812 C 37.667969 53.632812 37.941406 53.238281 37.941406 52.753906 L 37.941406 46.738281 C 38.71875 48.160156 41.363281 53.109375 41.363281 53.109375 C 41.53125 53.417969 41.902344 53.632812 42.179688 53.632812 L 45.273438 53.632812 C 45.550781 53.632812 45.65625 53.40625 45.695312 53.300781 C 45.726562 53.203125 45.785156 52.9375 45.605469 52.636719 Z M 41.242188 44.578125 "/>
<path style=" stroke:none;fill-rule:nonzero;fill:rgb(26.27451%,69.019608%,16.470588%);fill-opacity:1;" d="M 16.765625 35.5 L 29.515625 35.5 L 29.515625 53.644531 L 16.765625 53.644531 Z M 16.765625 35.5 "/>
<path style=" stroke:none;fill-rule:nonzero;fill:rgb(6.27451%,9.411765%,12.54902%);fill-opacity:1;" d="M 67.460938 35.5 L 63.507812 35.5 C 63.167969 35.5 62.890625 35.898438 62.890625 36.378906 L 62.890625 39.199219 C 62.890625 39.679688 63.167969 40.078125 63.507812 40.078125 L 66.871094 40.078125 C 68.867188 40.078125 70.105469 41.796875 70.105469 44.578125 C 70.105469 47.398438 68.890625 49.078125 66.839844 49.078125 L 62.050781 49.078125 C 61.980469 49.078125 61.90625 48.980469 61.898438 48.886719 L 60.417969 36.3125 C 60.371094 35.855469 60.078125 35.5 59.753906 35.5 L 57.332031 35.511719 C 57.03125 35.511719 56.714844 35.800781 56.601562 36.195312 C 56.601562 36.195312 54.785156 42.546875 54.320312 44.203125 C 53.871094 42.535156 52.042969 36.21875 52.042969 36.21875 C 51.9375 35.8125 51.628906 35.5 51.316406 35.511719 L 49.082031 35.523438 C 48.757812 35.5 48.4375 35.863281 48.371094 36.335938 L 46.414062 52.746094 C 46.40625 52.957031 46.445312 53.195312 46.550781 53.375 C 46.65625 53.558594 46.8125 53.652344 46.980469 53.652344 L 49.4375 53.652344 C 49.761719 53.652344 50.0625 53.203125 50.109375 52.753906 C 50.109375 52.753906 50.722656 46.78125 50.941406 44.597656 C 51.539062 46.738281 53.320312 52.949219 53.320312 52.949219 C 53.433594 53.355469 53.742188 53.652344 54.054688 53.652344 L 54.605469 53.652344 C 54.90625 53.652344 55.226562 53.355469 55.339844 52.957031 C 55.339844 52.957031 57.121094 46.738281 57.75 44.597656 C 57.945312 46.789062 58.484375 52.832031 58.484375 52.832031 C 58.519531 53.289062 58.816406 53.652344 59.140625 53.652344 L 67.46875 53.652344 C 71.042969 53.652344 73.945312 49.582031 73.945312 44.578125 C 73.9375 39.574219 71.035156 35.5 67.460938 35.5 "/>
<path style=" stroke:none;fill-rule:nonzero;fill:rgb(6.27451%,9.411765%,12.54902%);fill-opacity:1;" d="M 48.65625 61.5625 L 48.4375 61.5625 C 48.410156 61.5625 48.386719 61.53125 48.378906 61.488281 L 48.136719 60.292969 L 47.175781 60.292969 L 46.941406 61.488281 C 46.933594 61.53125 46.90625 61.5625 46.875 61.5625 L 46.65625 61.5625 C 46.617188 61.5625 46.59375 61.53125 46.59375 61.480469 C 46.59375 61.46875 46.59375 61.457031 46.59375 61.445312 L 47.273438 58.046875 C 47.335938 57.726562 47.507812 57.652344 47.652344 57.652344 C 47.789062 57.652344 47.960938 57.726562 48.023438 58.046875 L 48.703125 61.457031 C 48.703125 61.46875 48.703125 61.480469 48.703125 61.488281 C 48.71875 61.53125 48.695312 61.5625 48.65625 61.5625 Z M 47.726562 58.152344 C 47.722656 58.101562 47.699219 58.058594 47.660156 58.058594 C 47.621094 58.058594 47.601562 58.089844 47.585938 58.152344 L 47.246094 59.875 L 48.0625 59.875 Z M 47.726562 58.152344 "/>
<path style=" stroke:none;fill-rule:nonzero;fill:rgb(6.27451%,9.411765%,12.54902%);fill-opacity:1;" d="M 50.5625 61.5625 L 50.386719 61.5625 C 50.351562 61.5625 50.3125 61.519531 50.3125 61.457031 L 50.3125 59.734375 C 50.3125 59.210938 50.183594 59.042969 49.90625 59.042969 C 49.746094 59.042969 49.574219 59.125 49.40625 59.246094 L 49.40625 61.46875 C 49.40625 61.519531 49.375 61.574219 49.332031 61.574219 L 49.148438 61.574219 C 49.109375 61.574219 49.082031 61.53125 49.082031 61.46875 L 49.082031 58.796875 C 49.082031 58.742188 49.109375 58.6875 49.148438 58.6875 L 49.332031 58.6875 C 49.367188 58.6875 49.398438 58.730469 49.398438 58.796875 L 49.398438 58.890625 C 49.601562 58.730469 49.769531 58.65625 49.988281 58.65625 C 50.433594 58.65625 50.628906 59.050781 50.628906 59.746094 L 50.628906 61.46875 C 50.636719 61.519531 50.601562 61.5625 50.5625 61.5625 Z M 50.5625 61.5625 "/>
<path style=" stroke:none;fill-rule:nonzero;fill:rgb(6.27451%,9.411765%,12.54902%);fill-opacity:1;" d="M 53.917969 61.5625 L 53.691406 61.5625 C 53.628906 61.5625 53.59375 61.53125 53.570312 61.480469 L 52.429688 58.410156 C 52.429688 58.398438 52.421875 58.398438 52.421875 58.398438 C 52.421875 58.398438 52.421875 58.398438 52.421875 58.410156 L 52.421875 61.46875 C 52.421875 61.519531 52.390625 61.5625 52.355469 61.5625 L 52.15625 61.5625 C 52.121094 61.5625 52.089844 61.554688 52.089844 61.5 L 52.089844 57.832031 C 52.089844 57.746094 52.132812 57.683594 52.195312 57.683594 L 52.398438 57.683594 C 52.503906 57.683594 52.519531 57.703125 52.550781 57.789062 L 53.683594 60.847656 L 53.691406 60.859375 C 53.691406 60.859375 53.691406 60.847656 53.691406 60.847656 L 53.691406 57.789062 C 53.691406 57.738281 53.722656 57.695312 53.757812 57.695312 L 53.957031 57.695312 C 53.992188 57.695312 54.023438 57.738281 54.023438 57.789062 L 54.023438 61.425781 C 54.023438 61.5 53.976562 61.5625 53.917969 61.5625 Z M 53.917969 61.5625 "/>
<path style=" stroke:none;fill-rule:nonzero;fill:rgb(6.27451%,9.411765%,12.54902%);fill-opacity:1;" d="M 56.109375 61.574219 C 55.964844 61.597656 55.601562 61.597656 55.390625 61.597656 C 54.878906 61.597656 54.605469 61.316406 54.605469 60.625 L 54.605469 58.613281 C 54.605469 57.917969 54.878906 57.640625 55.390625 57.640625 C 55.609375 57.640625 55.957031 57.652344 56.109375 57.671875 C 56.132812 57.683594 56.148438 57.714844 56.148438 57.746094 L 56.148438 58.003906 C 56.148438 58.035156 56.132812 58.070312 56.109375 58.070312 L 55.398438 58.070312 C 55.007812 58.070312 54.945312 58.21875 54.945312 58.613281 L 54.945312 59.339844 L 56.078125 59.339844 C 56.117188 59.339844 56.15625 59.382812 56.15625 59.449219 L 56.15625 59.652344 C 56.15625 59.703125 56.125 59.757812 56.078125 59.757812 L 54.945312 59.757812 L 54.945312 60.632812 C 54.945312 61.03125 55.007812 61.179688 55.398438 61.179688 L 56.109375 61.179688 C 56.132812 61.179688 56.148438 61.199219 56.148438 61.242188 L 56.148438 61.511719 C 56.148438 61.53125 56.132812 61.574219 56.109375 61.574219 Z M 56.109375 61.574219 "/>
<path style=" stroke:none;fill-rule:nonzero;fill:rgb(6.27451%,9.411765%,12.54902%);fill-opacity:1;" d="M 58.15625 61.53125 C 58 61.574219 57.855469 61.597656 57.546875 61.597656 C 57.09375 61.597656 56.570312 61.253906 56.570312 59.980469 L 56.570312 59.253906 C 56.570312 57.972656 57.09375 57.640625 57.546875 57.640625 C 57.78125 57.640625 58.007812 57.683594 58.164062 57.726562 C 58.195312 57.726562 58.226562 57.746094 58.226562 57.789062 L 58.226562 58.058594 C 58.226562 58.089844 58.21875 58.109375 58.179688 58.109375 C 58.171875 58.109375 58.171875 58.109375 58.171875 58.109375 C 58.035156 58.101562 57.765625 58.070312 57.554688 58.070312 C 57.191406 58.070312 56.910156 58.367188 56.910156 59.253906 L 56.910156 59.980469 C 56.910156 60.859375 57.191406 61.167969 57.554688 61.167969 C 57.765625 61.167969 58.027344 61.148438 58.164062 61.125 C 58.164062 61.125 58.171875 61.125 58.179688 61.125 C 58.21875 61.125 58.242188 61.148438 58.242188 61.210938 L 58.242188 61.425781 C 58.234375 61.5 58.203125 61.519531 58.15625 61.53125 Z M 58.15625 61.53125 "/>
<path style=" stroke:none;fill-rule:nonzero;fill:rgb(6.27451%,9.411765%,12.54902%);fill-opacity:1;" d="M 61.089844 61.53125 C 60.929688 61.574219 60.789062 61.597656 60.476562 61.597656 C 60.023438 61.597656 59.503906 61.253906 59.503906 59.980469 L 59.503906 59.253906 C 59.503906 57.972656 60.023438 57.640625 60.476562 57.640625 C 60.710938 57.640625 60.9375 57.683594 61.097656 57.726562 C 61.128906 57.726562 61.15625 57.746094 61.15625 57.789062 L 61.15625 58.058594 C 61.15625 58.089844 61.152344 58.109375 61.113281 58.109375 C 61.105469 58.109375 61.105469 58.109375 61.105469 58.109375 C 60.96875 58.101562 60.695312 58.070312 60.484375 58.070312 C 60.121094 58.070312 59.84375 58.367188 59.84375 59.253906 L 59.84375 59.980469 C 59.84375 60.859375 60.121094 61.167969 60.484375 61.167969 C 60.695312 61.167969 60.960938 61.148438 61.097656 61.125 C 61.097656 61.125 61.105469 61.125 61.113281 61.125 C 61.152344 61.125 61.171875 61.148438 61.171875 61.210938 L 61.171875 61.425781 C 61.15625 61.5 61.128906 61.519531 61.089844 61.53125 Z M 61.089844 61.53125 "/>
<path style=" stroke:none;fill-rule:nonzero;fill:rgb(6.27451%,9.411765%,12.54902%);fill-opacity:1;" d="M 62.261719 61.605469 C 61.71875 61.605469 61.4375 61.105469 61.4375 60.335938 L 61.4375 59.9375 C 61.4375 59.167969 61.71875 58.667969 62.261719 58.667969 C 62.804688 58.667969 63.085938 59.167969 63.085938 59.9375 L 63.085938 60.335938 C 63.085938 61.09375 62.796875 61.605469 62.261719 61.605469 Z M 62.761719 59.929688 C 62.761719 59.394531 62.609375 59.050781 62.261719 59.050781 C 61.921875 59.050781 61.761719 59.382812 61.761719 59.929688 L 61.761719 60.324219 C 61.761719 60.859375 61.914062 61.199219 62.261719 61.199219 C 62.601562 61.199219 62.761719 60.871094 62.761719 60.324219 Z M 62.761719 59.929688 "/>
<path style=" stroke:none;fill-rule:nonzero;fill:rgb(6.27451%,9.411765%,12.54902%);fill-opacity:1;" d="M 65.890625 61.5625 L 65.714844 61.5625 C 65.675781 61.5625 65.640625 61.519531 65.640625 61.457031 L 65.640625 59.609375 C 65.640625 59.167969 65.496094 59.050781 65.300781 59.050781 C 65.164062 59.050781 65.011719 59.117188 64.867188 59.191406 C 64.890625 59.308594 64.898438 59.4375 64.898438 59.597656 L 64.898438 61.46875 C 64.898438 61.519531 64.875 61.574219 64.832031 61.574219 L 64.632812 61.574219 C 64.597656 61.574219 64.574219 61.53125 64.574219 61.46875 L 64.574219 59.609375 C 64.574219 59.148438 64.484375 59.0625 64.285156 59.0625 C 64.152344 59.0625 63.992188 59.160156 63.832031 59.265625 L 63.832031 61.46875 C 63.832031 61.519531 63.8125 61.574219 63.765625 61.574219 L 63.570312 61.574219 C 63.53125 61.574219 63.507812 61.53125 63.507812 61.46875 L 63.507812 58.796875 C 63.507812 58.742188 63.539062 58.6875 63.578125 58.6875 L 63.757812 58.6875 C 63.796875 58.6875 63.824219 58.730469 63.824219 58.796875 L 63.824219 58.890625 C 63.976562 58.761719 64.164062 58.644531 64.363281 58.644531 C 64.519531 58.644531 64.640625 58.710938 64.734375 58.859375 C 64.9375 58.71875 65.15625 58.644531 65.34375 58.644531 C 65.675781 58.644531 65.941406 58.878906 65.941406 59.609375 L 65.941406 61.46875 C 65.964844 61.519531 65.933594 61.5625 65.890625 61.5625 Z M 65.890625 61.5625 "/>
<path style=" stroke:none;fill-rule:nonzero;fill:rgb(6.27451%,9.411765%,12.54902%);fill-opacity:1;" d="M 67.226562 61.605469 C 67.113281 61.605469 66.941406 61.585938 66.796875 61.554688 L 66.796875 62.503906 C 66.796875 62.558594 66.765625 62.601562 66.726562 62.601562 L 66.539062 62.601562 C 66.5 62.601562 66.472656 62.558594 66.472656 62.503906 L 66.472656 58.902344 C 66.472656 58.839844 66.480469 58.804688 66.546875 58.785156 C 66.742188 58.71875 67 58.667969 67.226562 58.667969 C 67.777344 58.667969 68.035156 59.167969 68.035156 59.960938 L 68.035156 60.335938 C 68.027344 61.148438 67.761719 61.605469 67.226562 61.605469 Z M 67.703125 59.949219 C 67.703125 59.40625 67.589844 59.042969 67.21875 59.042969 C 67.0625 59.042969 66.886719 59.0625 66.789062 59.09375 L 66.789062 61.167969 C 66.910156 61.199219 67.105469 61.222656 67.21875 61.222656 C 67.582031 61.222656 67.703125 60.890625 67.703125 60.324219 Z M 67.703125 59.949219 "/>
<path style=" stroke:none;fill-rule:nonzero;fill:rgb(6.27451%,9.411765%,12.54902%);fill-opacity:1;" d="M 69.8125 61.5625 L 69.644531 61.5625 C 69.609375 61.5625 69.570312 61.519531 69.570312 61.457031 L 69.570312 61.339844 C 69.394531 61.488281 69.207031 61.597656 69.003906 61.597656 C 68.683594 61.597656 68.398438 61.402344 68.398438 60.75 L 68.398438 60.6875 C 68.398438 60.121094 68.632812 59.84375 69.289062 59.84375 L 69.5625 59.84375 L 69.5625 59.628906 C 69.5625 59.191406 69.457031 59.042969 69.167969 59.042969 C 68.925781 59.042969 68.753906 59.0625 68.601562 59.082031 C 68.59375 59.082031 68.59375 59.082031 68.585938 59.082031 C 68.558594 59.082031 68.519531 59.074219 68.519531 59 L 68.519531 58.816406 C 68.519531 58.761719 68.542969 58.730469 68.59375 58.71875 C 68.746094 58.6875 68.917969 58.65625 69.167969 58.65625 C 69.683594 58.65625 69.886719 59.019531 69.886719 59.640625 L 69.886719 61.46875 C 69.878906 61.519531 69.847656 61.5625 69.8125 61.5625 Z M 69.554688 60.175781 L 69.28125 60.175781 C 68.835938 60.175781 68.714844 60.3125 68.714844 60.6875 L 68.714844 60.75 C 68.714844 61.125 68.84375 61.234375 69.054688 61.234375 C 69.222656 61.234375 69.378906 61.15625 69.554688 61.019531 Z M 69.554688 60.175781 "/>
<path style=" stroke:none;fill-rule:nonzero;fill:rgb(6.27451%,9.411765%,12.54902%);fill-opacity:1;" d="M 71.867188 61.5625 L 71.691406 61.5625 C 71.65625 61.5625 71.617188 61.519531 71.617188 61.457031 L 71.617188 59.734375 C 71.617188 59.210938 71.488281 59.042969 71.210938 59.042969 C 71.050781 59.042969 70.878906 59.125 70.710938 59.246094 L 70.710938 61.46875 C 70.710938 61.519531 70.679688 61.574219 70.636719 61.574219 L 70.453125 61.574219 C 70.417969 61.574219 70.386719 61.53125 70.386719 61.46875 L 70.386719 58.796875 C 70.386719 58.742188 70.417969 58.6875 70.453125 58.6875 L 70.636719 58.6875 C 70.671875 58.6875 70.703125 58.730469 70.703125 58.796875 L 70.703125 58.890625 C 70.90625 58.730469 71.074219 58.65625 71.292969 58.65625 C 71.738281 58.65625 71.933594 59.050781 71.933594 59.746094 L 71.933594 61.46875 C 71.941406 61.519531 71.90625 61.5625 71.867188 61.5625 Z M 71.867188 61.5625 "/>
<path style=" stroke:none;fill-rule:nonzero;fill:rgb(6.27451%,9.411765%,12.54902%);fill-opacity:1;" d="M 73.9375 58.816406 L 73.324219 61.832031 C 73.210938 62.398438 73.078125 62.601562 72.652344 62.601562 C 72.546875 62.601562 72.417969 62.578125 72.34375 62.558594 C 72.296875 62.546875 72.269531 62.527344 72.269531 62.472656 L 72.269531 62.28125 C 72.269531 62.226562 72.296875 62.195312 72.335938 62.195312 C 72.335938 62.195312 72.34375 62.195312 72.34375 62.195312 C 72.425781 62.207031 72.59375 62.226562 72.675781 62.226562 C 72.886719 62.226562 72.976562 62.152344 73.039062 61.777344 L 73.078125 61.5625 L 73.023438 61.5625 C 72.910156 61.5625 72.820312 61.53125 72.75 61.199219 L 72.261719 58.804688 C 72.253906 58.796875 72.253906 58.785156 72.253906 58.773438 C 72.253906 58.71875 72.273438 58.6875 72.320312 58.6875 L 72.523438 58.6875 C 72.554688 58.6875 72.578125 58.730469 72.585938 58.773438 L 73.023438 61.039062 C 73.039062 61.148438 73.070312 61.15625 73.089844 61.15625 L 73.152344 61.15625 L 73.605469 58.761719 C 73.613281 58.71875 73.644531 58.6875 73.671875 58.6875 L 73.878906 58.6875 C 73.914062 58.6875 73.9375 58.71875 73.9375 58.773438 C 73.9375 58.796875 73.9375 58.804688 73.9375 58.816406 Z M 73.9375 58.816406 "/>
</g>
</svg>
